<svg width="25" height="25" viewBox="0 0 25 25" fill="none" xmlns="http://www.w3.org/2000/svg">
<g clip-path="url(#clip0_29_398)">
<path d="M22.0758 9.07499C22.0084 8.29768 21.651 7.57417 21.0748 7.04812C20.4986 6.52207 19.7456 6.23196 18.9654 6.23541H17.9737V5.45312C17.9737 4.00133 17.397 2.60901 16.3704 1.58244C15.3439 0.555875 13.9515 -0.0208435 12.4998 -0.0208435C11.048 -0.0208435 9.65565 0.555875 8.62909 1.58244C7.60252 2.60901 7.0258 4.00133 7.0258 5.45312V6.23437H6.03518C5.25472 6.2307 4.50147 6.52087 3.92517 7.04718C3.34887 7.57349 2.99173 8.2974 2.92476 9.07499L1.78622 21.5937C1.74701 22.0259 1.79825 22.4614 1.93667 22.8726C2.07508 23.2838 2.29764 23.6617 2.59017 23.9822C2.88269 24.3026 3.23876 24.5586 3.63569 24.7339C4.03262 24.9091 4.4617 24.9997 4.89559 25H4.9008L20.1081 24.9719C20.5416 24.9711 20.9702 24.88 21.3666 24.7045C21.7629 24.529 22.1184 24.2729 22.4104 23.9525C22.7024 23.6321 22.9245 23.2544 23.0626 22.8434C23.2006 22.4325 23.2516 21.9973 23.2123 21.5656L22.0758 9.07499ZM8.58934 5.45312C8.58934 4.41601 9.00133 3.42138 9.73468 2.68803C10.468 1.95469 11.4627 1.5427 12.4998 1.5427C13.5369 1.5427 14.5315 1.95469 15.2648 2.68803C15.9982 3.42138 16.4102 4.41601 16.4102 5.45312V6.23437H8.58934V5.45312ZM20.106 23.4094L4.89872 23.4354H4.89664C4.68013 23.4354 4.46599 23.3903 4.26788 23.303C4.06977 23.2156 3.89204 23.088 3.74601 22.9281C3.59998 22.7683 3.48886 22.5798 3.41974 22.3746C3.35062 22.1694 3.32501 21.9521 3.34455 21.7365L4.48309 9.21562C4.51658 8.8277 4.69484 8.4666 4.98241 8.20411C5.26999 7.94162 5.64582 7.79698 6.03518 7.79895H7.02476V10.1458C7.02476 10.3533 7.10718 10.5523 7.25389 10.699C7.4006 10.8457 7.59958 10.9281 7.80705 10.9281C8.01453 10.9281 8.21351 10.8457 8.36022 10.699C8.50692 10.5523 8.58934 10.3533 8.58934 10.1458V7.79895H16.4102V10.1458C16.4102 10.5781 16.7602 10.9271 17.1914 10.9271H17.1935C17.4007 10.9271 17.5994 10.8448 17.7459 10.6983C17.8925 10.5517 17.9748 10.353 17.9748 10.1458V7.79895H18.9654C19.3548 7.79749 19.7305 7.94244 20.018 8.20505C20.3055 8.46766 20.4838 8.82874 20.5175 9.21666L21.655 21.7094C21.6746 21.9249 21.6492 22.1422 21.5803 22.3473C21.5114 22.5525 21.4004 22.741 21.2546 22.901C21.1088 23.0609 20.9313 23.1887 20.7333 23.2762C20.5354 23.3638 20.3214 23.4091 20.105 23.4094H20.106Z" fill="black"/>
</g>
<defs>
<clipPath id="clip0_29_398">
<rect width="25" height="25" fill="white"/>
</clipPath>
</defs>
</svg>
